HIERARCHY
ROOT Root
{
  OFFSET 0.0 0.0 0.0
  CHANNELS 6 Xposition Yposition Zposition Zrotation Yrotation Xrotation
  JOINT Hips
  {
    OFFSET 0.0 100.0 0.0
    CHANNELS 6 Xposition Yposition Zposition Zrotation Yrotation Xrotation
    JOINT Spine1
    {
      OFFSET 5.003913 -0.037094 -0.013727
      CHANNELS 3 Zrotation Yrotation Xrotation
      JOINT Spine2
      {
        OFFSET 7.125363 -1e-06 0.0
        CHANNELS 3 Zrotation Yrotation Xrotation
        JOINT Chest
        {
          OFFSET 7.594027 1e-06 0.0
          CHANNELS 3 Zrotation Yrotation Xrotation
          JOINT Neck1
          {
            OFFSET 26.313086 -0.460272 -0.181672
            CHANNELS 3 Zrotation Yrotation Xrotation
            JOINT Neck2
            {
              OFFSET 8.045911 0.0 0.0
              CHANNELS 3 Zrotation Yrotation Xrotation
              JOINT Head
              {
                OFFSET 6.432774 0.0 0.0
                CHANNELS 3 Zrotation Yrotation Xrotation
                JOINT HeadEnd
                {
                  OFFSET 16.169773 0.06451 0.00362
                  CHANNELS 3 Zrotation Yrotation Xrotation
                }
                JOINT Jaw
                {
                  OFFSET 0.108741 3.12938 0.002639
                  CHANNELS 3 Zrotation Yrotation Xrotation
                }
                JOINT LeftEye
                {
                  OFFSET 4.45173 8.166359 3.206392
                  CHANNELS 3 Zrotation Yrotation Xrotation
                }
                JOINT RightEye
                {
                  OFFSET 4.436895 8.135758 -3.222429
                  CHANNELS 3 Zrotation Yrotation Xrotation
                }
              }
            }
          }
          JOINT LeftShoulder
          {
            OFFSET 23.218927 5.195579 1.621656
            CHANNELS 3 Zrotation Yrotation Xrotation
            JOINT LeftArm
            {
              OFFSET 15.902118 2e-06 -2e-06
              CHANNELS 3 Zrotation Yrotation Xrotation
              JOINT LeftForeArm
              {
                OFFSET 28.739307 0.0 -1e-06
                CHANNELS 3 Zrotation Yrotation Xrotation
                JOINT LeftHand
                {
                  OFFSET 27.093981 -4e-06 0.0
                  CHANNELS 3 Zrotation Yrotation Xrotation
                  JOINT LeftHandThumb1
                  {
                    OFFSET 2.276781 3.380274 0.83384
                    CHANNELS 3 Zrotation Yrotation Xrotation
                    JOINT LeftHandThumb2
                    {
                      OFFSET 4.705309 -1e-06 -1e-06
                      CHANNELS 3 Zrotation Yrotation Xrotation
                      JOINT LeftHandThumb3
                      {
                        OFFSET 2.798515 0.0 3e-06
                        CHANNELS 3 Zrotation Yrotation Xrotation
                        JOINT LeftHandThumbEnd
                        {
                          OFFSET 3.180793 4e-06 -4e-06
                          CHANNELS 3 Zrotation Yrotation Xrotation
                        }
                      }
                    }
                  }
                  JOINT LeftHandIndex1
                  {
                    OFFSET 3.247786 2.352677 0.137192
                    CHANNELS 3 Zrotation Yrotation Xrotation
                    JOINT LeftHandIndex2
                    {
                      OFFSET 6.367095 1e-06 0.0
                      CHANNELS 3 Zrotation Yrotation Xrotation
                      JOINT LeftHandIndex3
                      {
                        OFFSET 3.662364 0.0 0.0
                        CHANNELS 3 Zrotation Yrotation Xrotation
                        JOINT LeftHandIndex4
                        {
                          OFFSET 2.329242 4e-06 -4e-06
                          CHANNELS 3 Zrotation Yrotation Xrotation
                          JOINT LeftHandIndexEnd
                          {
                            OFFSET 2.767823 1e-06 0.0
                            CHANNELS 3 Zrotation Yrotation Xrotation
                          }
                        }
                      }
                    }
                  }
                  JOINT LeftHandMiddle1
                  {
                    OFFSET 3.163612 0.945023 -0.406112
                    CHANNELS 3 Zrotation Yrotation Xrotation
                    JOINT LeftHandMiddle2
                    {
                      OFFSET 6.276789 3e-06 0.0
                      CHANNELS 3 Zrotation Yrotation Xrotation
                      JOINT LeftHandMiddle3
                      {
                        OFFSET 4.35652 -1e-06 4e-06
                        CHANNELS 3 Zrotation Yrotation Xrotation
                        JOINT LeftHandMiddle4
                        {
                          OFFSET 2.996877 0.0 8e-06
                          CHANNELS 3 Zrotation Yrotation Xrotation
                          JOINT LeftHandMiddleEnd
                          {
                            OFFSET 2.323256 3e-06 -4e-06
                            CHANNELS 3 Zrotation Yrotation Xrotation
                          }
                        }
                      }
                    }
                  }
                  JOINT LeftHandRing1
                  {
                    OFFSET 2.882606 -0.309162 0.107445
                    CHANNELS 3 Zrotation Yrotation Xrotation
                    JOINT LeftHandRing2
                    {
                      OFFSET 6.033198 0.0 4e-06
                      CHANNELS 3 Zrotation Yrotation Xrotation
                      JOINT LeftHandRing3
                      {
                        OFFSET 4.350578 3e-06 0.0
                        CHANNELS 3 Zrotation Yrotation Xrotation
                        JOINT LeftHandRing4
                        {
                          OFFSET 2.651321 2e-06 -7e-06
                          CHANNELS 3 Zrotation Yrotation Xrotation
                          JOINT LeftHandRingEnd
                          {
                            OFFSET 1.937663 1e-06 -4e-06
                            CHANNELS 3 Zrotation Yrotation Xrotation
                          }
                        }
                      }
                    }
                  }
                  JOINT LeftHandPinky1
                  {
                    OFFSET 2.865315 -1.525436 0.575687
                    CHANNELS 3 Zrotation Yrotation Xrotation
                    JOINT LeftHandPinky2
                    {
                      OFFSET 5.54936 1e-06 -8e-06
                      CHANNELS 3 Zrotation Yrotation Xrotation
                      JOINT LeftHandPinky3
                      {
                        OFFSET 3.070974 0.0 -4e-06
                        CHANNELS 3 Zrotation Yrotation Xrotation
                        JOINT LeftHandPinky4
                        {
                          OFFSET 1.549672 1e-06 0.0
                          CHANNELS 3 Zrotation Yrotation Xrotation
                          JOINT LeftHandPinkyEnd
                          {
                            OFFSET 1.952123 0.0 0.0
                            CHANNELS 3 Zrotation Yrotation Xrotation
                          }
                        }
                      }
                    }
                  }
                }
              }
            }
          }
          JOINT RightShoulder
          {
            OFFSET 23.161716 5.296122 -1.380114
            CHANNELS 3 Zrotation Yrotation Xrotation
            JOINT RightArm
            {
              OFFSET -16.027195 -2e-06 1.1e-05
              CHANNELS 3 Zrotation Yrotation Xrotation
              JOINT RightForeArm
              {
                OFFSET -28.736639 4e-06 2e-06
                CHANNELS 3 Zrotation Yrotation Xrotation
                JOINT RightHand
                {
                  OFFSET -27.133619 6e-06 0.0
                  CHANNELS 3 Zrotation Yrotation Xrotation
                  JOINT RightHandThumb1
                  {
                    OFFSET -2.274328 -3.351035 -0.83067
                    CHANNELS 3 Zrotation Yrotation Xrotation
                    JOINT RightHandThumb2
                    {
                      OFFSET -4.703594 -3e-06 2e-06
                      CHANNELS 3 Zrotation Yrotation Xrotation
                      JOINT RightHandThumb3
                      {
                        OFFSET -2.794935 -4e-06 -3e-06
                        CHANNELS 3 Zrotation Yrotation Xrotation
                        JOINT RightHandThumbEnd
                        {
                          OFFSET -3.183852 4e-06 1e-06
                          CHANNELS 3 Zrotation Yrotation Xrotation
                        }
                      }
                    }
                  }
                  JOINT RightHandIndex1
                  {
                    OFFSET -3.253496 -2.33755 -0.127667
                    CHANNELS 3 Zrotation Yrotation Xrotation
                    JOINT RightHandIndex2
                    {
                      OFFSET -6.344434 0.0 0.0
                      CHANNELS 3 Zrotation Yrotation Xrotation
                      JOINT RightHandIndex3
                      {
                        OFFSET -3.654871 0.0 -8e-06
                        CHANNELS 3 Zrotation Yrotation Xrotation
                        JOINT RightHandIndex4
                        {
                          OFFSET -2.327586 -1e-06 0.0
                          CHANNELS 3 Zrotation Yrotation Xrotation
                          JOINT RightHandIndexEnd
                          {
                            OFFSET -2.770001 3e-06 8e-06
                            CHANNELS 3 Zrotation Yrotation Xrotation
                          }
                        }
                      }
                    }
                  }
                  JOINT RightHandMiddle1
                  {
                    OFFSET -3.168223 -0.944764 0.411762
                    CHANNELS 3 Zrotation Yrotation Xrotation
                    JOINT RightHandMiddle2
                    {
                      OFFSET -6.266691 -1e-06 -4e-06
                      CHANNELS 3 Zrotation Yrotation Xrotation
                      JOINT RightHandMiddle3
                      {
                        OFFSET -4.348901 0.0 0.0
                        CHANNELS 3 Zrotation Yrotation Xrotation
                        JOINT RightHandMiddle4
                        {
                          OFFSET -3.00024 2e-06 -4e-06
                          CHANNELS 3 Zrotation Yrotation Xrotation
                          JOINT RightHandMiddleEnd
                          {
                            OFFSET -2.321477 -4e-06 -4e-06
                            CHANNELS 3 Zrotation Yrotation Xrotation
                          }
                        }
                      }
                    }
                  }
                  JOINT RightHandRing1
                  {
                    OFFSET -2.885654 0.293261 -0.119232
                    CHANNELS 3 Zrotation Yrotation Xrotation
                    JOINT RightHandRing2
                    {
                      OFFSET -6.032835 -1e-06 -4e-06
                      CHANNELS 3 Zrotation Yrotation Xrotation
                      JOINT RightHandRing3
                      {
                        OFFSET -4.33881 0.0 -4e-06
                        CHANNELS 3 Zrotation Yrotation Xrotation
                        JOINT RightHandRing4
                        {
                          OFFSET -2.654903 -4e-06 -4e-06
                          CHANNELS 3 Zrotation Yrotation Xrotation
                          JOINT RightHandRingEnd
                          {
                            OFFSET -1.935122 0.0 4e-06
                            CHANNELS 3 Zrotation Yrotation Xrotation
                          }
                        }
                      }
                    }
                  }
                  JOINT RightHandPinky1
                  {
                    OFFSET -2.866241 1.503904 -0.60527
                    CHANNELS 3 Zrotation Yrotation Xrotation
                    JOINT RightHandPinky2
                    {
                      OFFSET -5.553177 -2e-06 0.0
                      CHANNELS 3 Zrotation Yrotation Xrotation
                      JOINT RightHandPinky3
                      {
                        OFFSET -3.062664 -1e-06 -4e-06
                        CHANNELS 3 Zrotation Yrotation Xrotation
                        JOINT RightHandPinky4
                        {
                          OFFSET -1.546529 2e-06 4e-06
                          CHANNELS 3 Zrotation Yrotation Xrotation
                          JOINT RightHandPinkyEnd
                          {
                            OFFSET -1.952341 0.0 -4e-06
                            CHANNELS 3 Zrotation Yrotation Xrotation
                          }
                        }
                      }
                    }
                  }
                }
              }
            }
          }
        }
      }
    }
    JOINT LeftLeg
    {
      OFFSET -8.443107 2.567604 10.043214
      CHANNELS 3 Zrotation Yrotation Xrotation
      JOINT LeftShin
      {
        OFFSET 43.229198 1e-06 -1e-06
        CHANNELS 3 Zrotation Yrotation Xrotation
        JOINT LeftFoot
        {
          OFFSET 42.298611 1e-06 1e-06
          CHANNELS 3 Zrotation Yrotation Xrotation
          JOINT LeftToeBase
          {
            OFFSET 14.165858 1e-06 0.0
            CHANNELS 3 Zrotation Yrotation Xrotation
            JOINT LeftToeEnd
            {
              OFFSET 6.7141 -0.234461 0.0
              CHANNELS 3 Zrotation Yrotation Xrotation
            }
          }
        }
      }
    }
    JOINT RightLeg
    {
      OFFSET -8.303923 2.592729 -10.047278
      CHANNELS 3 Zrotation Yrotation Xrotation
      JOINT RightShin
      {
        OFFSET -43.369682 0.0 1e-06
        CHANNELS 3 Zrotation Yrotation Xrotation
        JOINT RightFoot
        {
          OFFSET -42.260784 4e-06 2e-06
          CHANNELS 3 Zrotation Yrotation Xrotation
          JOINT RightToeBase
          {
            OFFSET -14.222245 -2e-06 -1e-06
            CHANNELS 3 Zrotation Yrotation Xrotation
            JOINT RightToeEnd
            {
              OFFSET -6.660062 0.232574 -2e-06
              CHANNELS 3 Zrotation Yrotation Xrotation
            }
          }
        }
      }
    }
  }
}
MOTION
Frames: 4
Frame Time: 0.03333333333333333
0.0 0.0 0.0 0.0 -0.0 0.0 -1.641746 99.624893 -0.966717 89.302322 0.889337 90.065895 -2.089585 -0.708132 -0.36393 -11.607129 -0.84097 -1.236306 17.67424 2.452884 -2.885622 18.920969 0.264591 2.580297 -2.538055 -0.776585 0.964189 -31.955034 -0.581536 1.242446 7e-06 -0.0 -0.0 -0.013832 -0.011462 -0.107526 -0.00648 0.048453 -0.128033 -0.07319 -0.067252 -0.082184 -118.196358 -75.708351 132.846176 56.042068 -55.749973 15.840373 31.055996 -0.590745 0.019402 -1.615353 3.803876 -2.495681 17.636623 -26.322718 52.411179 -19.46666 -14.395594 29.410381 0.0 -8.774819 -1e-06 15.859556 -18.338072 6.374954 -0.609776 -1.795655 -3.889326 -4.807088 -11.046807 -2.937852 4e-06 -20.976011 -1e-06 -5.019969 -25.033552 -4.031882 5e-06 1e-06 -1e-06 -10.63453 -5.68697 -3.565587 10.573269 -17.922945 -3.113899 2e-06 -13.821205 -0.0 -0.501778 -31.181498 -4.027017 -11.796097 -59.972786 7.72024 -13.982712 -7.150198 -2.875043 13.772727 -8.401489 -3.218241 0.347734 -34.21154 0.77165 -0.963028 -17.733364 2.621018 0.0 2e-06 -1e-06 -17.346415 -20.095215 -4.201782 21.757555 -1.638374 3.866428 0.0 -6.338823 1e-06 -1.697587 -22.59174 -6.194008 0.0 -2e-06 -1e-06 48.882355 -73.628494 146.293411 46.430614 -59.16486 0.394238 28.145029 -0.019479 0.127247 4.06841 3.815269 1.123456 22.182114 -20.375889 49.933319 -16.701817 -16.74353 28.476532 -4e-06 -12.690601 -1e-06 15.685653 -17.561703 2.893197 -0.105918 -1.513856 -4.275881 -5.039041 -5.612873 -2.953556 6e-06 -11.020525 -4e-06 -6.111298 -15.895334 -3.840471 0.0 2e-06 -1e-06 -10.28337 -5.680288 -4.34184 11.028295 -11.302407 -2.372634 -1.384268 -14.238581 -6.320123 -0.625438 -26.924191 -3.8276 -4.270883 -49.462097 -3.580062 -13.708527 -7.363478 -3.720939 18.141153 -14.052741 -3.242677 6e-06 -18.78727 -5e-06 -0.429709 -8.456047 2.555506 -0.0 -1e-06 -1e-06 -15.923532 -20.094482 -5.473587 30.41921 -7.190829 1.735925 2e-06 -8.162925 -0.0 -1.861899 -22.861469 -6.167943 1e-06 -4e-06 1e-06 179.748062 -5.23666 -0.071615 14.916537 0.024302 -0.040059 -82.826492 -0.168405 -5.727222 -4.477838 1.544803 2.168628 -0.999998 0.0 -0.0 -2.770391 -0.173294 -7.586408 17.12081 0.010615 -0.100885 -81.890289 -11.791523 -4.26665 -4.616068 0.713351 1.671187 -1.000001 1e-06 0.0 
0.0 0.0 0.0 0.0 -0.0 0.0 -2.176668 99.469597 -1.040164 88.876465 1.191851 90.968399 -1.792645 -0.3364 -0.407794 -11.518115 -0.756342 -1.218329 17.623093 2.467418 -2.888177 19.476614 0.244842 2.628632 -2.547098 -0.756198 0.84692 -32.049786 -0.543151 0.970893 6e-06 -0.0 0.0 -0.034697 -0.005602 -0.076558 -0.007683 0.044347 -0.093866 -0.07158 -0.051327 -0.053892 -116.907661 -75.949249 131.559875 56.614685 -55.866371 15.408492 31.373562 -0.61524 0.012682 -1.56975 3.763114 -2.070901 17.636631 -26.322729 52.411186 -19.466661 -14.395596 29.410389 -0.0 -8.774821 -1e-06 15.845757 -18.259945 6.32237 -0.609776 -1.795653 -3.889327 -4.80709 -11.046811 -2.937849 5e-06 -20.976017 -1e-06 -5.01997 -25.033556 -4.031881 7e-06 2e-06 -2e-06 -10.634534 -5.686972 -3.565589 10.573277 -17.922951 -3.113904 4e-06 -13.821209 -1e-06 -0.501772 -31.181507 -4.02702 -11.654142 -59.750755 7.592649 -13.982712 -7.150198 -2.875041 13.772729 -8.401491 -3.218242 0.347733 -34.211552 0.771653 -0.963028 -17.73337 2.621019 1e-06 1e-06 -1e-06 -17.346416 -20.095217 -4.201784 21.757555 -1.638375 3.86643 1e-06 -6.338824 0.0 -1.697587 -22.591742 -6.194007 0.0 0.0 -2e-06 50.053024 -74.027763 145.187897 46.947414 -59.569592 -0.358593 28.008066 -0.027266 0.147548 4.252527 3.853009 0.757214 22.182119 -20.375898 49.933319 -16.701817 -16.74353 28.47653 -1e-06 -12.6906 -3e-06 15.745203 -17.556726 2.85611 -0.105917 -1.513856 -4.27588 -5.039043 -5.612873 -2.953558 5e-06 -11.020523 -2e-06 -6.111297 -15.895334 -3.840471 -0.0 1e-06 -1e-06 -10.283369 -5.680288 -4.341837 11.028294 -11.302405 -2.372634 -1.384269 -14.238579 -6.32012 -0.625439 -26.924187 -3.8276 -4.260502 -49.627598 -3.596057 -13.708526 -7.363475 -3.720939 18.141148 -14.052739 -3.242673 5e-06 -18.78727 -1e-06 -0.429711 -8.456045 2.555505 1e-06 -2e-06 -0.0 -15.923538 -20.094484 -5.473582 30.419214 -7.190827 1.735928 2e-06 -8.162927 -0.0 -1.861899 -22.861471 -6.167942 -2e-06 -4e-06 -1e-06 178.911407 -6.068081 0.760343 16.779276 0.027744 0.0081 -83.638611 -0.015798 -6.023252 -4.47487 1.569291 2.187694 -0.999999 0.0 0.0 -2.609609 0.654868 -7.876858 17.544317 0.017467 -0.092984 -82.268433 -12.622137 -4.07207 -4.556404 0.700405 1.678135 -1.000002 1e-06 -0.0 
0.0 0.0 0.0 0.0 -0.0 0.0 -2.762567 99.21907 -1.223261 88.124146 1.569719 91.964836 -1.432447 0.29527 -0.422296 -11.40407 -0.642477 -1.214048 17.58765 2.634986 -2.870892 20.192812 0.247682 2.686687 -2.596514 -0.739839 0.6782 -32.056366 -0.458969 0.582361 6e-06 -0.0 -0.0 -0.044636 -0.000822 -0.057113 -0.029347 0.047844 -0.070998 -0.081998 -0.046015 -0.036568 -115.249924 -76.187416 129.936264 57.334438 -56.036537 14.680745 32.006649 -0.592183 -0.006153 -1.55756 3.678258 -1.611806 17.636629 -26.322741 52.411209 -19.466656 -14.395597 29.410393 -0.0 -8.774821 -2e-06 15.837242 -18.262325 6.272889 -0.609777 -1.795653 -3.889329 -4.807089 -11.046808 -2.937852 3e-06 -20.976015 3e-06 -5.019972 -25.033554 -4.031878 7e-06 1e-06 -1e-06 -10.634535 -5.686972 -3.565587 10.573271 -17.922947 -3.113899 1e-06 -13.821209 2e-06 -0.501782 -31.181505 -4.027012 -11.668558 -59.57061 7.489583 -13.982713 -7.150198 -2.875044 13.772727 -8.401491 -3.21824 0.347728 -34.211552 0.771658 -0.963028 -17.733372 2.621019 0.0 2e-06 -0.0 -17.346416 -20.095217 -4.201783 21.757557 -1.638373 3.866427 0.0 -6.338823 3e-06 -1.697591 -22.591743 -6.194008 -1e-06 -3e-06 -1e-06 51.697403 -74.636879 143.596863 47.388027 -60.071178 -1.219679 28.101137 0.020109 0.156393 4.315537 3.93519 0.293591 22.182116 -20.375898 49.933319 -16.701817 -16.74353 28.47653 -2e-06 -12.6906 -3e-06 15.779758 -17.502071 2.825181 -0.105919 -1.513856 -4.275881 -5.03904 -5.61287 -2.953556 5e-06 -11.02052 -1e-06 -6.111296 -15.89533 -3.840471 0.0 1e-06 -2e-06 -10.283369 -5.680288 -4.34184 11.028292 -11.302404 -2.372633 -1.384267 -14.238579 -6.32012 -0.625437 -26.924183 -3.827599 -4.24736 -49.647377 -3.639805 -13.708524 -7.363474 -3.720942 18.141148 -14.052739 -3.242673 5e-06 -18.787266 -1e-06 -0.42971 -8.456043 2.555503 -0.0 -0.0 -0.0 -15.923536 -20.094482 -5.473589 30.41921 -7.190828 1.735926 2e-06 -8.162925 -0.0 -1.861899 -22.861471 -6.167942 -0.0 -3e-06 0.0 177.303741 -7.293338 1.618779 20.09025 0.018818 0.054923 -84.854019 0.262556 -6.146249 -4.541426 1.567874 2.206568 -1.000001 0.0 -0.0 -2.603306 1.858491 -8.311277 18.23575 0.015447 -0.110504 -82.744499 -13.490993 -3.867534 -4.395463 0.689918 1.684788 -1.000003 1e-06 0.0 
0.0 0.0 0.0 0.0 -0.0 0.0 -3.379795 98.855492 -1.445374 87.025047 2.060834 92.94323 -1.009781 1.133627 -0.431474 -11.188682 -0.447611 -1.13793 17.540428 2.998767 -2.819173 21.04055 0.394818 2.603478 -2.629119 -0.775928 0.620565 -32.117878 -0.238436 0.321633 5e-06 -0.0 0.0 -0.046989 -0.004191 -0.082242 -0.042152 0.040939 -0.09874 -0.08467 -0.047146 -0.057942 -113.134964 -76.326057 127.913788 58.357555 -56.24659 13.591236 32.857891 -0.536291 0.028783 -1.386188 3.965205 -1.369465 17.636631 -26.322729 52.411182 -19.46666 -14.395597 29.410381 0.0 -8.774822 0.0 15.82688 -18.220505 6.20278 -0.609776 -1.795654 -3.889325 -4.80709 -11.04681 -2.937853 4e-06 -20.976019 0.0 -5.019972 -25.03356 -4.031881 6e-06 3e-06 0.0 -10.634535 -5.68697 -3.565585 10.573274 -17.922949 -3.113899 2e-06 -13.821209 2e-06 -0.50178 -31.181505 -4.027016 -11.779724 -59.588238 7.470626 -13.982714 -7.150198 -2.875041 13.77273 -8.401491 -3.218241 0.34773 -34.211544 0.771654 -0.963028 -17.733368 2.621019 1e-06 2e-06 -0.0 -17.34642 -20.095217 -4.20178 21.757557 -1.638373 3.866427 0.0 -6.338824 1e-06 -1.697589 -22.591747 -6.194009 -2e-06 -2e-06 -3e-06 53.867123 -75.362984 141.431351 47.691273 -60.532341 -1.877885 28.425476 0.006008 0.129548 4.294696 4.085228 -0.219713 22.182116 -20.375893 49.933323 -16.701807 -16.743526 28.476528 -1e-06 -12.690598 -2e-06 15.771173 -17.548767 2.813541 -0.105919 -1.513857 -4.275881 -5.039042 -5.612872 -2.953556 5e-06 -11.02052 -2e-06 -6.111297 -15.895334 -3.840471 1e-06 -1e-06 -1e-06 -10.283367 -5.680287 -4.341837 11.028292 -11.302401 -2.372633 -1.384268 -14.238578 -6.320121 -0.625437 -26.924183 -3.8276 -4.386339 -49.51067 -3.641693 -13.70852 -7.363475 -3.720939 18.141146 -14.052738 -3.242675 5e-06 -18.787266 -3e-06 -0.429713 -8.456042 2.555502 1e-06 -3e-06 0.0 -15.923532 -20.094482 -5.473588 30.419201 -7.190825 1.735929 1e-06 -8.162927 -1e-06 -1.861902 -22.861467 -6.167945 2e-06 -6e-06 1e-06 174.826569 -8.946851 2.356861 25.21426 -0.015383 0.048722 -86.050903 0.595741 -6.195791 -4.669116 1.534633 2.240582 -1.0 0.0 -0.0 -2.699448 3.445214 -8.839955 19.200851 0.005695 -0.165986 -83.366264 -14.261209 -3.562238 -4.137575 0.674038 1.687692 -1.000001 1e-06 0.0 
